<svg xmlns="http://www.w3.org/2000/svg" width="22" height="9" fill="none" viewBox="0 0 22 9">
    <path fill="#000" d="M5.654 6.438h-3.65l-.82 2.273H0L3.327 0h1.005l3.332 8.711H6.486l-.832-2.273zm-3.303-.945h2.962L3.829 1.418 2.351 5.493zm9.442-2.262a3.319 3.319 0 0 0-.545-.042c-.726 0-1.218.31-1.478.927v4.595H8.664V2.238H9.74l.018.748c.362-.579.877-.868 1.543-.868.216 0 .38.028.49.084V3.23zM14.617.67v1.567h1.208v.855h-1.208v4.015c0 .26.054.455.161.586.108.128.291.192.55.192.128 0 .304-.024.527-.072v.897a3.21 3.21 0 0 1-.85.12c-.494 0-.867-.15-1.118-.449-.251-.299-.377-.724-.377-1.274V3.093H12.33v-.855h1.179V.67h1.107zm6.276 6.323c0-.299-.114-.53-.34-.694-.224-.167-.617-.31-1.18-.43-.558-.12-1.003-.264-1.334-.431-.327-.168-.57-.367-.73-.599a1.445 1.445 0 0 1-.233-.825c0-.53.223-.98.67-1.347.45-.366 1.025-.55 1.723-.55.734 0 1.328.19 1.783.568.459.38.688.864.688 1.454h-1.113c0-.303-.13-.564-.389-.783-.255-.22-.578-.33-.969-.33-.403 0-.718.088-.945.264a.829.829 0 0 0-.341.688c0 .267.105.468.317.604.211.136.592.265 1.143.389.554.124 1.003.271 1.346.443.343.171.596.379.76.622.167.24.251.532.251.88 0 .578-.231 1.043-.694 1.394-.463.347-1.063.52-1.801.52-.518 0-.977-.092-1.376-.275a2.268 2.268 0 0 1-.94-.766 1.878 1.878 0 0 1-.334-1.07h1.106c.02.37.168.665.443.885.28.215.646.323 1.101.323.419 0 .754-.084 1.005-.252.255-.171.383-.399.383-.682z"/>
</svg>
